# xmcd CD database file
#
# Track frame offsets:
#	150
#	18184
#	41687
#	48500
#	70424
#	82353
#	100692
#	116790
#	132929
#	152079
#	170784
#	205730
#	211522
#	227339
#
# Disc length: 3225 seconds
#
# Revision: 0
# Processed by: cddbd v1.4PL0 Copyright (c) Steve Scherf et al.
# Submitted via: Feurio! 1.65 - http://www.feurio.com
#
DISCID=bc0c970e
DTITLE=Calexico - Hot Rail
DYEAR=2000
DGENRE=Alternative
TTITLE0=El Picador
TTITLE1=Ballad Of Cable Hogue
TTITLE2=Ritual Road Map
TTITLE3=Fade
TTITLE4=Untitled III
TTITLE5=Sonic Wind
TTITLE6=Muleta
TTITLE7=Mid-Town
TTITLE8=Service And Repair
TTITLE9=Untitled II
TTITLE10=Drenched
TTITLE11=16 Track Scratch
TTITLE12=Tres Avisos
TTITLE13=Hot Rail
EXTD=City Slang 20153-2 - Virgin 849016 2
EXTT0=Burns - Convertino
EXTT1=Burns
EXTT2=Burns - Convertino
EXTT3=Burns - Convertino
EXTT4=Convertino
EXTT5=Burns - Convertino
EXTT6=Burns
EXTT7=
EXTT8=Burns
EXTT9=Convertino
EXTT10=Burns
EXTT11=Burns - Convertino
EXTT12=Burns
EXTT13=Burns - Convertino
PLAYORDER=
